<svg width="24" height="25" viewBox="0 0 24 25" fill="none" xmlns="http://www.w3.org/2000/svg">
<path d="M24.001 8.49799V1.74799C24.001 1.54907 23.922 1.35831 23.7813 1.21766C23.6407 1.077 23.4499 0.997986 23.251 0.997986H16.501C16.3021 0.997986 16.1113 1.077 15.9707 1.21766C15.83 1.35831 15.751 1.54907 15.751 1.74799C15.751 1.9469 15.83 2.13766 15.9707 2.27832C16.1113 2.41897 16.3021 2.49799 16.501 2.49799H23.251L22.501 1.74799V8.49799C22.501 8.6969 22.58 8.88766 22.7207 9.02832C22.8613 9.16897 23.0521 9.24799 23.251 9.24799C23.4499 9.24799 23.6407 9.16897 23.7813 9.02832C23.922 8.88766 24.001 8.6969 24.001 8.49799ZM22.721 1.21799L7.72101 16.218C7.64732 16.2866 7.58822 16.3694 7.54723 16.4614C7.50623 16.5534 7.48419 16.6528 7.48242 16.7535C7.48064 16.8542 7.49916 16.9542 7.53688 17.0476C7.57461 17.141 7.63075 17.2258 7.70197 17.297C7.77319 17.3682 7.85802 17.4244 7.95141 17.4621C8.0448 17.4998 8.14483 17.5184 8.24553 17.5166C8.34623 17.5148 8.44555 17.4928 8.53755 17.4518C8.62954 17.4108 8.71235 17.3517 8.78101 17.278L23.781 2.27799C23.9135 2.13581 23.9856 1.94776 23.9822 1.75346C23.9788 1.55916 23.9 1.37378 23.7626 1.23636C23.6252 1.09895 23.4398 1.02024 23.2455 1.01681C23.0512 1.01338 22.8632 1.08551 22.721 1.21799ZM11.251 5.49799H2.25101C1.65427 5.49799 1.08197 5.73504 0.660017 6.157C0.23806 6.57895 0.00100708 7.15125 0.00100708 7.74799V22.748C0.00100708 23.3447 0.23806 23.917 0.660017 24.339C1.08197 24.7609 1.65427 24.998 2.25101 24.998H17.251C17.8477 24.998 18.42 24.7609 18.842 24.339C19.264 23.917 19.501 23.3447 19.501 22.748V13.748C19.501 13.5491 19.422 13.3583 19.2813 13.2177C19.1407 13.077 18.9499 12.998 18.751 12.998C18.5521 12.998 18.3613 13.077 18.2207 13.2177C18.08 13.3583 18.001 13.5491 18.001 13.748V22.748C18.001 22.9469 17.922 23.1377 17.7813 23.2783C17.6407 23.419 17.4499 23.498 17.251 23.498H2.25101C2.05209 23.498 1.86133 23.419 1.72068 23.2783C1.58002 23.1377 1.50101 22.9469 1.50101 22.748V7.74799C1.50101 7.54907 1.58002 7.35831 1.72068 7.21766C1.86133 7.077 2.05209 6.99799 2.25101 6.99799H11.251C11.4499 6.99799 11.6407 6.91897 11.7813 6.77832C11.922 6.63766 12.001 6.4469 12.001 6.24799C12.001 6.04907 11.922 5.85831 11.7813 5.71766C11.6407 5.577 11.4499 5.49799 11.251 5.49799Z" fill="white"/>
</svg>
